<?xml version="1.0" standalone="no"?>
<!DOCTYPE svg PUBLIC "-//W3C//DTD SVG 20010904//EN"
 "http://www.w3.org/TR/2001/REC-SVG-20010904/DTD/svg10.dtd">
<svg version="1.0" xmlns="http://www.w3.org/2000/svg"
 width="320.000000pt" height="320.000000pt" viewBox="0 0 320.000000 320.000000"
 preserveAspectRatio="xMidYMid meet">
<metadata>
Created by potrace 1.11, written by Peter Selinger 2001-2013
</metadata>
<g transform="translate(0.000000,320.000000) scale(0.100000,-0.100000)"
fill="#000000" stroke="none">
<path d="M207 3144 c-21 -30 -36 -54 -33 -54 7 0 79 100 75 104 -2 2 -21 -20
-42 -50z"/>
<path d="M274 3163 c-35 -37 -84 -120 -84 -144 0 -6 -10 -25 -22 -42 -21 -29
-21 -30 -2 -22 10 4 27 8 37 9 9 0 17 4 17 8 0 4 7 4 17 1 12 -5 14 -3 8 7 -5
9 -4 11 3 6 6 -4 21 3 32 14 12 12 28 19 38 16 9 -3 24 -1 32 5 12 8 9 9 -10
4 -24 -6 -24 -5 -6 9 11 9 23 16 26 16 3 0 21 20 40 45 19 25 39 45 46 45 7 0
16 5 20 12 4 7 3 8 -4 4 -15 -9 -15 -1 -2 25 18 34 -17 23 -51 -16 -17 -19
-38 -35 -47 -35 -8 0 -31 -12 -51 -27 -35 -26 -35 -26 -16 -2 11 13 30 36 43
51 13 14 21 31 18 37 -13 21 -45 11 -82 -26z m-30 -110 c-39 -30 -42 -22 -8
23 24 31 30 34 33 19 2 -12 -8 -28 -25 -42z"/>
<path d="M479 3183 c-13 -16 -12 -17 4 -4 9 7 17 15 17 17 0 8 -8 3 -21 -13z"/>
<path d="M481 3139 c-24 -33 -55 -69 -69 -79 -13 -11 -20 -20 -15 -20 17 0
141 146 132 155 -3 2 -24 -23 -48 -56z"/>
<path d="M2270 3171 c0 -6 9 -34 20 -63 21 -54 80 -272 80 -296 0 -8 -12 -4
-33 12 -127 97 -410 162 -752 173 -141 4 -202 2 -280 -11 -287 -48 -580 -213
-774 -439 -132 -153 -253 -364 -303 -529 -12 -43 -25 -78 -28 -78 -3 0 -27 42
-54 93 -60 114 -138 239 -144 232 -3 -3 11 -28 30 -57 19 -29 65 -107 101
-174 l66 -121 -15 -83 c-8 -46 -17 -141 -21 -211 l-6 -129 -81 -2 -81 -2 80
-5 c95 -7 93 -2 75 -153 -13 -116 -18 -131 -36 -124 -22 8 -120 19 -114 13 3
-3 33 -10 65 -16 75 -12 81 -6 93 79 19 125 64 280 113 385 l24 50 7 -115 c4
-63 11 -129 16 -147 9 -29 4 -41 -67 -160 -42 -70 -106 -173 -142 -228 -114
-175 -109 -164 -109 -249 l0 -76 38 0 c20 0 77 7 127 15 139 23 125 38 125
-136 l0 -151 33 7 c17 4 41 8 52 11 11 2 -70 -41 -180 -97 -110 -55 -189 -97
-175 -93 14 3 122 53 240 110 118 57 224 104 236 104 11 0 42 6 67 14 l46 14
30 -46 c17 -26 29 -48 27 -49 -2 -2 -90 -19 -197 -38 -226 -41 -275 -53 -384
-97 -92 -37 -90 -36 -83 -44 3 -3 23 2 44 11 102 44 215 76 384 109 199 38
321 53 523 63 l127 6 0 -80 c0 -89 -16 -156 -50 -203 -12 -17 -20 -34 -17 -37
3 -3 20 16 36 42 34 53 46 108 46 207 l0 68 35 -6 c19 -4 36 -8 38 -9 1 -1 -5
-38 -14 -81 -19 -95 -49 -168 -109 -270 -25 -41 -45 -78 -45 -80 0 -2 50 -4
110 -4 106 0 110 1 100 19 -15 29 -12 137 6 202 13 45 21 59 39 63 13 3 31 9
40 13 16 5 17 2 11 -28 -3 -19 -8 -64 -11 -102 -3 -39 -13 -84 -25 -107 -11
-22 -20 -44 -20 -50 0 -6 30 -10 76 -10 l76 0 -4 62 c-3 46 0 70 14 97 10 19
18 43 18 51 0 33 13 28 47 -16 l35 -46 37 34 c20 18 51 47 70 63 l33 30 -52
-105 c-29 -58 -68 -120 -87 -137 l-34 -33 140 0 140 0 6 47 c19 140 46 318 50
322 14 13 175 -134 175 -160 0 -5 -17 -17 -38 -28 -47 -24 -122 -98 -121 -120
0 -12 5 -9 17 9 26 38 73 79 114 101 21 10 39 19 41 19 9 0 49 -93 60 -139 13
-55 33 -72 22 -19 -14 63 -56 153 -94 203 l-38 50 57 85 c93 138 80 135 201
39 57 -46 125 -100 152 -121 32 -27 48 -35 51 -26 20 63 32 95 69 175 23 51
46 93 52 93 5 0 79 -23 163 -51 l153 -51 -6 -86 c-4 -48 -11 -134 -16 -192 -5
-58 -9 -116 -8 -130 2 -66 18 47 28 205 18 264 31 392 51 490 10 50 26 141 35
204 27 188 67 307 138 413 31 46 34 48 80 48 26 0 47 5 47 10 0 6 -8 10 -17
10 -11 0 -33 24 -55 58 -32 49 -38 67 -38 113 0 47 -13 151 -36 281 -6 36 -6
37 55 67 33 17 63 31 66 31 3 0 5 -17 6 -37 0 -21 4 -47 9 -58 10 -24 3 120
-11 210 -7 49 -6 62 6 71 22 17 18 26 -6 14 -18 -10 -20 -18 -14 -68 3 -31 9
-69 11 -84 5 -25 0 -30 -64 -62 l-69 -35 -23 107 c-48 219 -106 393 -173 512
-43 78 -221 332 -275 394 -91 104 -302 283 -302 257z m-1556 -487 c26 -10 19
-30 -29 -84 -25 -28 -52 -62 -61 -75 -21 -32 -64 -35 -64 -4 0 32 19 60 79
116 65 60 55 55 75 47z m16 -85 c0 -19 -61 -100 -71 -94 -15 10 -10 25 22 66
30 38 49 49 49 28z m18 -61 c-2 -13 -11 -24 -20 -26 -21 -4 -24 18 -6 36 19
19 30 14 26 -10z m533 -171 c-58 -78 -113 -153 -121 -165 l-15 -23 -35 36 -34
35 29 30 c41 39 268 229 276 230 4 0 -41 -64 -100 -143z m697 -89 c21 -21 13
-49 -21 -83 -42 -42 -82 -54 -104 -32 -15 14 -15 18 1 42 16 24 91 85 106 85
3 0 11 -5 18 -12z m-138 -12 c0 -18 -17 -29 -30 -21 -8 5 -7 11 1 21 15 18 29
18 29 0z m344 -156 c8 -85 18 -199 22 -253 l7 -97 -59 35 c-75 45 -136 63
-255 74 -86 8 -101 7 -171 -15 -84 -27 -96 -35 -72 -54 12 -11 22 -10 52 4 92
45 285 23 424 -46 l80 -40 -5 -242 c-5 -241 -16 -343 -57 -524 -10 -47 -17
-88 -16 -90 7 -6 132 131 186 204 31 40 75 108 98 151 23 43 42 71 42 62 0
-30 -42 -174 -56 -190 -8 -9 -11 -18 -8 -22 3 -3 -1 -27 -10 -53 -9 -26 -14
-49 -12 -51 2 -2 50 42 106 97 73 71 110 100 128 100 71 0 171 -94 198 -186
42 -146 -30 -281 -196 -365 -54 -28 -78 -34 -147 -37 -111 -5 -171 15 -235 79
-27 27 -51 49 -54 49 -3 0 -17 -11 -32 -26 -40 -37 -195 -110 -296 -139 -123
-35 -129 -34 -119 13 15 70 8 193 -15 269 -37 121 -104 176 -229 189 -118 13
-321 -61 -424 -154 l-49 -44 0 -89 c0 -85 23 -179 53 -216 13 -18 6 -17 -103
12 -176 48 -364 155 -430 246 -24 34 -30 52 -30 96 0 57 21 121 45 139 12 9
16 44 19 160 2 82 9 183 16 224 19 114 66 264 117 367 43 88 49 94 86 104 71
19 205 12 301 -16 102 -29 96 -29 96 -11 0 16 -82 58 -150 76 -25 7 -89 12
-142 12 -89 0 -97 1 -89 17 25 46 113 155 184 229 l81 82 33 -32 c18 -17 33
-36 33 -41 0 -4 -17 -34 -38 -65 -61 -90 -94 -150 -85 -155 4 -3 53 28 108 69
89 65 101 71 116 59 23 -22 35 -18 15 4 -16 18 -14 20 49 61 37 23 68 40 70
38 2 -2 -7 -40 -20 -84 -13 -45 -36 -137 -50 -205 -15 -68 -37 -167 -50 -219
-13 -52 -22 -97 -20 -99 2 -2 35 25 72 59 89 82 183 155 438 341 116 84 227
160 247 168 21 9 36 20 35 26 -4 12 136 116 145 107 3 -4 13 -77 22 -162z
m161 40 c25 -28 25 -88 1 -106 -29 -21 -53 -1 -61 51 -10 69 22 97 60 55z
m351 -5 c25 -38 29 -98 9 -119 -10 -9 -24 -16 -33 -14 -41 8 -82 129 -51 149
26 16 58 9 75 -16z m79 -73 c0 -18 -20 -15 -23 4 -3 10 1 15 10 12 7 -3 13
-10 13 -16z m271 -734 c4 -6 -2 -17 -12 -25 -10 -8 -18 -17 -17 -21 6 -17 -10
-41 -27 -39 -10 1 -16 5 -14 9 3 5 9 6 14 3 11 -7 32 30 23 38 -3 4 2 9 11 13
33 13 14 24 -39 23 -34 -1 -52 -5 -48 -12 3 -6 1 -7 -5 -3 -7 4 -12 2 -12 -5
0 -7 -2 -10 -5 -7 -3 3 -3 12 0 21 8 18 120 23 131 5z m-139 -70 c-3 -7 -5 -2
-5 12 0 14 2 19 5 13 2 -7 2 -19 0 -25z m81 -53 c-6 -14 -13 -23 -15 -21 -5 5
15 46 22 46 3 0 -1 -11 -7 -25z m-54 3 c-3 -4 3 -8 12 -8 10 0 15 -2 12 -5 -7
-8 -58 5 -58 14 0 4 9 7 19 7 11 0 17 -4 15 -8z m-99 -759 l20 -8 -20 0 c-11
0 -36 7 -55 15 l-35 14 35 -6 c19 -4 44 -10 55 -15z m-1236 -5 c-13 -16 -161
-94 -178 -94 -9 0 -34 70 -28 77 2 1 48 7 102 13 54 6 101 12 103 15 12 12 13
3 1 -11z m69 -4 c36 -22 37 -28 17 -90 -12 -34 -35 -63 -93 -118 l-77 -72 -23
27 c-27 33 -62 107 -62 133 0 12 17 25 55 40 72 29 148 78 140 90 -10 16 7 12
43 -10z m-294 -22 c2 -7 8 -27 13 -45 11 -32 10 -32 -31 -47 -22 -9 -65 -24
-93 -35 -29 -10 -53 -18 -53 -16 0 5 71 128 83 143 5 6 25 12 44 12 18 0 35
-6 37 -12z m46 -112 c0 -8 -12 -11 -37 -7 l-38 4 30 13 c32 13 45 10 45 -10z
m-75 -26 c3 -5 1 -10 -4 -10 -6 0 -11 5 -11 10 0 6 2 10 4 10 3 0 8 -4 11 -10z
m-18 -57 c-3 -10 -5 -4 -5 12 0 17 2 24 5 18 2 -7 2 -21 0 -30z m43 -127 c0
-2 -11 -6 -25 -8 -13 -3 -22 -1 -19 3 5 9 44 13 44 5z m-69 -43 c-12 -20 -14
-14 -5 12 4 9 9 14 11 11 3 -2 0 -13 -6 -23z m76 -25 c-3 -8 -6 -5 -6 6 -1 11
2 17 5 13 3 -3 4 -12 1 -19z"/>
<path d="M813 1692 c-95 -34 -137 -77 -188 -192 -22 -51 -30 -84 -33 -150 -3
-82 -2 -87 30 -140 48 -79 108 -114 206 -119 90 -4 140 9 209 55 116 79 160
220 114 371 -23 75 -69 136 -123 164 -57 29 -151 34 -215 11z m255 -284 c24
-24 8 -78 -24 -78 -23 0 -45 31 -38 54 11 35 40 46 62 24z"/>
<path d="M1789 1686 c-79 -28 -141 -94 -191 -204 -26 -56 -31 -80 -32 -147 -1
-96 17 -137 92 -207 62 -58 106 -77 198 -85 62 -5 78 -3 120 17 64 32 157 126
179 183 28 73 18 205 -20 282 -42 84 -100 140 -166 159 -63 19 -131 20 -180 2z
m266 -357 c13 -41 -38 -65 -70 -33 -20 20 -15 36 15 51 28 14 47 8 55 -18z"/>
<path d="M631 1069 c-13 -17 -20 -34 -16 -37 6 -7 27 16 46 51 16 29 -6 19
-30 -14z"/>
<path d="M676 1072 c-10 -19 -15 -36 -13 -39 9 -8 39 45 35 59 -3 7 -12 -2
-22 -20z"/>
<path d="M2507 992 c7 -60 -5 -84 -52 -106 -29 -14 -35 -22 -35 -50 0 -17 -6
-40 -13 -50 -13 -17 -15 -17 -45 -2 -39 20 -105 21 -121 2 -11 -13 -7 -13 24
-5 45 13 65 7 144 -44 47 -30 74 -41 100 -41 50 2 137 41 166 76 39 46 58 146
30 155 -6 2 -10 -19 -10 -50 0 -73 -34 -118 -110 -146 -69 -26 -86 -26 -136 0
-40 20 -40 21 -25 44 9 13 16 38 16 54 0 21 6 32 20 36 10 3 31 20 45 37 22
26 26 40 23 75 -3 39 0 45 19 50 13 3 39 3 58 1 19 -2 35 0 35 4 0 4 -31 8
-70 8 l-69 0 6 -48z"/>
<path d="M1817 974 c-11 -14 -16 -28 -13 -31 6 -6 45 36 46 50 0 15 -15 6 -33
-19z"/>
<path d="M1866 975 c-18 -27 -20 -35 -8 -35 4 0 16 14 25 30 22 36 6 41 -17 5z"/>
<path d="M140 3050 c-12 -16 -19 -30 -16 -30 2 0 14 14 26 30 12 17 19 30 16
30 -2 0 -14 -13 -26 -30z"/>
<path d="M65 2943 c-33 -50 -41 -69 -31 -71 14 -3 166 75 166 85 0 3 -34 -14
-76 -37 -42 -23 -78 -39 -81 -37 -3 3 14 33 36 66 23 34 39 61 37 61 -3 0 -26
-30 -51 -67z"/>
<path d="M130 2965 c-7 -9 -11 -17 -9 -20 3 -2 10 5 17 15 14 24 10 26 -8 5z"/>
<path d="M275 2829 c-44 -28 -124 -75 -178 -105 -53 -30 -97 -60 -97 -65 0 -6
6 -7 12 -3 10 6 11 4 1 -7 -31 -32 -16 -38 105 -42 l117 -3 -117 -2 c-65 -1
-118 -6 -118 -11 0 -8 329 -21 339 -14 3 2 -3 17 -12 32 -9 16 -17 31 -17 34
0 3 45 10 100 17 l100 13 0 34 c0 30 -3 33 -29 33 -17 0 -60 -7 -97 -15 -36
-9 -68 -14 -70 -12 -2 2 7 30 20 63 32 80 39 104 29 104 -4 -1 -44 -23 -88
-51z m56 -16 c-9 -15 -10 -14 -7 7 6 35 7 37 12 23 3 -7 1 -20 -5 -30z m-21
15 c0 -2 -15 -18 -33 -35 -22 -21 -34 -27 -34 -18 0 8 2 13 4 11 2 -2 16 7 30
20 24 22 33 28 33 22z m1 -65 c-12 -20 -14 -14 -5 12 4 9 9 14 11 11 3 -2 0
-13 -6 -23z m-85 -2 c0 -13 -6 -17 -20 -13 -14 4 -17 2 -11 -8 5 -9 4 -11 -3
-6 -6 4 -22 2 -34 -5 -34 -18 -13 2 30 27 20 12 37 23 37 23 1 1 1 -7 1 -18z
m-96 -45 c0 -3 -18 -15 -40 -27 -21 -12 -37 -26 -34 -30 3 -5 -2 -6 -11 -3
-13 5 -5 14 32 35 51 31 53 31 53 25z m310 -6 c-34 -11 -60 -11 -35 0 11 5 29
8 40 8 16 0 15 -2 -5 -8z m50 -5 c0 -8 -2 -15 -4 -15 -2 0 -6 7 -10 15 -3 8
-1 15 4 15 6 0 10 -7 10 -15z m-130 -15 c-13 -9 -13 -10 0 -11 8 0 -3 -5 -25
-10 -21 -5 -43 -15 -47 -22 -6 -9 -8 -9 -8 1 0 7 10 17 23 22 20 8 21 9 2 11
-14 1 -11 4 10 9 17 4 37 8 45 9 13 1 13 0 0 -9z m94 -2 c-3 -4 -22 -8 -42 -7
-31 1 -33 2 -12 8 33 9 60 9 54 -1z m-139 -88 c3 -5 -3 -10 -15 -10 -12 0 -18
5 -15 10 3 6 10 10 15 10 5 0 12 -4 15 -10z"/>
<path d="M3038 2741 c-87 -58 -155 -107 -152 -110 2 -3 70 40 151 95 80 54
151 102 157 106 6 4 8 9 6 11 -3 2 -76 -44 -162 -102z"/>
<path d="M3005 2644 c-49 -13 -102 -23 -117 -21 -15 1 -26 -2 -25 -8 3 -14 56
-7 159 20 48 13 88 22 88 20 0 -6 -119 -205 -143 -238 -21 -30 -18 -36 25 -55
27 -11 28 -10 118 125 50 75 89 138 87 140 -5 4 -73 -90 -130 -181 -47 -76
-59 -84 -87 -66 -13 8 -13 12 0 32 34 55 150 249 150 253 0 9 -35 3 -125 -21z"/>
<path d="M38 2473 c6 -2 18 -2 25 0 6 3 1 5 -13 5 -14 0 -19 -2 -12 -5z"/>
<path d="M113 2463 c9 -2 25 -2 35 0 9 3 1 5 -18 5 -19 0 -27 -2 -17 -5z"/>
<path d="M2 2419 c-2 -34 1 -40 14 -35 9 3 21 6 26 6 6 0 8 3 5 7 -4 3 2 13
14 21 25 17 13 33 -29 38 -27 3 -29 1 -30 -37z"/>
<path d="M240 2452 c0 -6 -8 -13 -17 -15 -16 -4 -16 -5 -1 -6 18 -1 34 16 24
26 -3 4 -6 1 -6 -5z"/>
<path d="M88 2403 c7 -3 16 -2 19 1 4 3 -2 6 -13 5 -11 0 -14 -3 -6 -6z"/>
<path d="M0 1399 c0 -5 15 -9 34 -9 50 0 52 -15 5 -29 -23 -7 -39 -15 -36 -17
6 -7 127 29 127 38 0 4 -21 10 -47 13 -27 3 -56 8 -65 10 -10 2 -18 -1 -18 -6z"/>
<path d="M3024 1195 c-16 -40 -19 -68 -4 -45 5 8 10 11 10 5 0 -5 8 -1 17 10
15 20 15 20 10 -2 -3 -13 -1 -23 4 -23 5 0 9 14 9 31 0 24 -4 30 -16 25 -12
-4 -14 -1 -9 14 11 34 -5 22 -21 -15z"/>
<path d="M3085 1170 c-4 -12 -5 -24 -2 -27 3 -2 8 5 12 17 4 12 5 24 2 27 -3
2 -8 -5 -12 -17z"/>
<path d="M3120 1171 c0 -5 -3 -16 -6 -25 -3 -9 -2 -16 4 -16 5 0 12 11 14 25
3 14 1 25 -3 25 -5 0 -9 -4 -9 -9z"/>
<path d="M3170 1155 c0 -8 7 -15 15 -15 9 0 12 6 9 15 -4 8 -10 15 -15 15 -5
0 -9 -7 -9 -15z"/>
<path d="M3151 1144 c0 -11 3 -14 6 -6 3 7 2 16 -1 19 -3 4 -6 -2 -5 -13z"/>
<path d="M3135 961 c-47 -21 -125 -102 -144 -148 -32 -78 30 -125 71 -55 9 15
44 54 77 85 54 52 61 63 61 98 0 45 -7 47 -65 20z"/>
<path d="M3172 783 c-19 -45 -25 -89 -23 -155 1 -15 12 -39 25 -54 l23 -28 1
142 c1 78 0 142 -2 142 -2 0 -13 -21 -24 -47z"/>
<path d="M27 723 c-15 -2 -27 -8 -27 -13 0 -5 7 -7 15 -4 22 9 20 -32 -2 -45
-10 -5 -15 -13 -11 -16 4 -4 13 -3 20 1 25 16 84 13 95 -5 16 -26 3 -80 -24
-99 -14 -9 -33 -25 -44 -34 -10 -10 -25 -15 -34 -12 -8 4 -15 2 -15 -4 0 -5 7
-12 15 -16 20 -7 19 -43 -2 -55 -10 -5 -15 -12 -11 -16 3 -4 17 -1 30 6 12 7
31 12 42 10 10 -1 31 10 46 26 16 15 35 34 44 41 9 7 16 28 16 45 0 18 3 58 5
90 5 49 3 58 -12 64 -10 4 -23 13 -28 20 -11 15 -72 23 -118 16z m53 -33 c0
-11 -6 -20 -13 -20 -19 0 -27 10 -20 26 8 21 33 17 33 -6z m55 0 c0 -8 -8 -16
-17 -18 -13 -2 -18 3 -18 18 0 15 5 20 18 18 9 -2 17 -10 17 -18z m43 -37 c2
-8 -6 -13 -22 -13 -19 0 -24 4 -19 15 6 18 34 16 41 -2z m-3 -59 c0 -12 -8
-20 -22 -22 -25 -4 -31 16 -11 36 17 17 33 10 33 -14z m-20 -74 c0 -31 -31
-40 -40 -11 -8 26 2 43 23 39 10 -2 17 -13 17 -28z m-47 -42 c5 -39 -31 -57
-52 -26 -20 28 -4 61 27 56 15 -2 23 -11 25 -30z"/>
<path d="M122 523 c5 -24 27 -28 25 -4 -1 12 -7 21 -15 21 -7 0 -12 -8 -10
-17z"/>
<path d="M0 445 c0 -8 5 -15 10 -15 6 0 10 7 10 15 0 8 -4 15 -10 15 -5 0 -10
-7 -10 -15z"/>
<path d="M2579 249 c-200 -117 -222 -135 -250 -198 -27 -62 -18 -62 12 0 27
58 59 83 249 193 63 36 110 66 104 66 -5 0 -57 -27 -115 -61z"/>
<path d="M2703 283 c-7 -16 -41 -82 -77 -148 -36 -66 -66 -124 -66 -130 0 -6
21 28 46 75 25 47 63 118 85 158 22 39 37 72 32 72 -5 0 -14 -12 -20 -27z"/>
<path d="M3037 263 c-17 -20 -47 -137 -47 -186 0 -69 7 -77 64 -77 l52 0 13
72 c26 147 26 144 -7 178 -35 34 -52 37 -75 13z"/>
<path d="M946 52 c-14 -22 -31 -42 -38 -45 -7 -3 -4 -6 7 -6 14 -1 27 13 43
41 29 54 21 61 -12 10z"/>
</g>
</svg>
